<?xml version="1.0" encoding="utf-8"?>
<?xml-stylesheet type="text/xsl" href="rss1.xsl"?>
<rss version="2.0" xmlns:atom="http://www.w3.org/2005/Atom" xmlns:content="http://purl.org/rss/1.0/modules/content/" xmlns:dc="http://purl.org/dc/elements/1.1/" xmlns:media="http://search.yahoo.com/mrss/">
<channel>
 <title>Getty</title>
 <link>http://www.gettyimg.com/</link>
 <atom:link href="http://www.gettyimg.com/" rel="self" type="application/rss+xml" />

 
                <item>
                <title><![CDATA[【Interviews / TV shows / Others】WEB-RiP - Ariana Grande 'The Zane Lowe Interview' Apple Music 1080]]></title>
                <link><![CDATA[https://sharemania.us/threads/ariana-grande-the-zane-lowe-interview-apple-music-1080.239837/]]></link>
                <description><![CDATA[<article>
<blockquote class="messageText SelectQuoteContainer ugc baseHtml">
<div style="text-align: center"><img src="https://i.ibb.co/nRYw452/20240313181407.gif" class="bbCodeImage LbImage" alt="[​IMG]" data-url="https://i.ibb.co/nRYw452/20240313181407.gif" style=""><br>
​</div>
<div class="ToggleTriggerAnchor bbCodeSpoilerContainer">
<button type="button" class="button bbCodeSpoilerButton ToggleTrigger Tooltip JsOnly" data-target="> .SpoilerTarget"><span>Spoiler: <span class="SpoilerTitle">Apple Music</span></span></button>
<div class="SpoilerTarget bbCodeSpoilerText">
<div class="bbCodeBlock bbCodeCode">
<div class="type">Code:</div>
<pre>General
Complete name                            : Ariana Grande 'The Zane Lowe Interview'.m4v
Format                                   : MPEG-4
Codec ID                                 : M4V  (M4v /M4A /isom/mp42)
File size                                : 1.16 GiB
Duration                                 : 30 min 23 s
Overall bit rate                         : 5 452 kb/s
Frame rate                               : 23.976 FPS

Video
ID                                       : 1
Format                                   : AVC
Format/Info                              : Advanced Video Codec
Format profile                           : High@L4
Format settings                          : CABAC / 4 Ref Frames
Format settings, CABAC                   : Yes
Format settings, Reference frames        : 4 frames
Format settings, Slice count             : 8 slices per frame
Codec ID                                 : avc1
Codec ID/Info                            : Advanced Video Coding
Duration                                 : 30 min 23 s
Bit rate                                 : 5 196 kb/s
Width                                    : 1 920 pixels
Height                                   : 1 080 pixels
Display aspect ratio                     : 16:9
Frame rate mode                          : Constant
Frame rate                               : 23.976 (24000/1001) FPS
Color space                              : YUV
Chroma subsampling                       : 4:2:0
Bit depth                                : 8 bits
Scan type                                : Progressive
Bits/(Pixel*Frame)                       : 0.105
Stream size                              : 1.10 GiB (95%)
Title                                    : Core Media Video
Language                                 : English
Color range                              : Limited
Color primaries                          : BT.709
Transfer characteristics                 : BT.709
Matrix coefficients                      : BT.709
Codec configuration box                  : avcC

Audio
ID                                       : 2
Format                                   : AAC LC
Format/Info                              : Advanced Audio Codec Low Complexity
Codec ID                                 : 2 / 40 / mp4a-40-2
Duration                                 : 30 min 23 s
Bit rate mode                            : Constant
Bit rate                                 : 250 kb/s
Channel(s)                               : 2 channels
Channel layout                           : L R
Sampling rate                            : 48.0 kHz
Frame rate                               : 46.875 FPS (1024 SPF)
Compression mode                         : Lossy
Stream size                              : 54.4 MiB (5%)
Title                                    : Core Media Audio
Language                                 : English</pre>
</div><div style="text-align: center">​</div></div>
</div><div style="text-align: center"><br>
<div class="bbCodeBlock bbCodeVfcHH HiddenContent">
<div class="attribution type">Hidden Content:</div>
<blockquote>You must reply before you can see the hidden data contained here.</blockquote>
</div></div>
<div class="messageTextEndMarker">&nbsp;</div>
</blockquote>
</article>]]></description>
                <author><![CDATA[fstambuk]]></author>
                </item>

                
                <item>
                <title><![CDATA[【PRORES HD】BASTILLE - POMPEII 'MTV UNPLUGGED' [ProRes 1080]]]></title>
                <link><![CDATA[https://sharemania.us/threads/bastille-pompeii-mtv-unplugged-prores-1080.239836/]]></link>
                <description><![CDATA[<article>
<blockquote class="messageText SelectQuoteContainer ugc baseHtml">
<div style="text-align: center"><img src="https://i.ibb.co/286jdZ8/20240313173958.gif" class="bbCodeImage LbImage" alt="[​IMG]" data-url="https://i.ibb.co/286jdZ8/20240313173958.gif" style=""><br>
​</div>
<div class="ToggleTriggerAnchor bbCodeSpoilerContainer">
<button type="button" class="button bbCodeSpoilerButton ToggleTrigger Tooltip JsOnly" data-target="> .SpoilerTarget"><span>Spoiler: <span class="SpoilerTitle">ProRes</span></span></button>
<div class="SpoilerTarget bbCodeSpoilerText">
<div class="bbCodeBlock bbCodeCode">
<div class="type">Code:</div>
<pre>General
Complete name                            : BASTILLE - POMPEII 'MTV UNPLUGGED'.mp4
Format                                   : MPEG-4
Format profile                           : QuickTime
Codec ID                                 : qt   2005.03 (qt  )
File size                                : 6.74 GiB
Duration                                 : 5 min 41 s
Overall bit rate mode                    : Variable
Overall bit rate                         : 169 Mb/s
Frame rate                               : 25.000 FPS
Encoded date                             : 2023-11-08 11:17:58 UTC
Tagged date                              : 2023-11-08 11:19:46 UTC
Writing library                          : Apple QuickTime
TIM                                      : 00:00:00:00
TSC                                      : 25
TSZ                                      : 1

Video
ID                                       : 1
Format                                   : ProRes
Format version                           : Version 0
Format profile                           : 422 HQ
Codec ID                                 : apch
Duration                                 : 5 min 41 s
Bit rate mode                            : Variable
Bit rate                                 : 167 Mb/s
Width                                    : 1 920 pixels
Height                                   : 1 080 pixels
Display aspect ratio                     : 16:9
Frame rate mode                          : Constant
Frame rate                               : 25.000 FPS
Color space                              : YUV
Chroma subsampling                       : 4:2:2
Scan type                                : Progressive
Bits/(Pixel*Frame)                       : 3.221
Stream size                              : 6.65 GiB (99%)
Writing library                          : Apple
Language                                 : English
Encoded date                             : 2023-11-08 11:17:58 UTC
Tagged date                              : 2023-11-08 11:17:58 UTC
Color primaries                          : BT.709
Transfer characteristics                 : BT.709
Matrix coefficients                      : BT.709

Audio
ID                                       : 2
Format                                   : PCM
Format settings                          : Little / Signed
Codec ID                                 : in24
Duration                                 : 5 min 41 s
Bit rate mode                            : Constant
Bit rate                                 : 2 304 kb/s
Channel(s)                               : 2 channels
Channel layout                           : L R
Sampling rate                            : 48.0 kHz
Bit depth                                : 24 bits
Stream size                              : 93.9 MiB (1%)
Language                                 : English
Encoded date                             : 2023-11-08 11:17:58 UTC
Tagged date                              : 2023-11-08 11:17:58 UTC

Other
ID                                       : 3
Type                                     : Time code
Format                                   : QuickTime TC
Duration                                 : 5 min 41 s
Frame rate                               : 25.000 FPS
Time code of first frame                 : 00:00:00:00
Time code of last frame                  : 00:05:41:22
Time code, stripped                      : Yes
Language                                 : English
Encoded date                             : 2023-11-08 11:17:58 UTC
Tagged date                              : 2023-11-08 11:17:58 UTC</pre>
</div><div style="text-align: center">​</div></div>
</div><div style="text-align: center"><br>
<div class="bbCodeBlock bbCodeVfcHH HiddenContent">
<div class="attribution type">Hidden Content:</div>
<blockquote>You must reply before you can see the hidden data contained here.</blockquote>
</div></div>
<div class="messageTextEndMarker">&nbsp;</div>
</blockquote>
</article>]]></description>
                <author><![CDATA[fstambuk]]></author>
                </item>

                
                <item>
                <title><![CDATA[【Apple Music】WEB-RiP - Girls Aloud - Biology (2160p AM WEB-DL AAC2.0 H.265)]]></title>
                <link><![CDATA[https://sharemania.us/threads/girls-aloud-biology-2160p-am-web-dl-aac2-0-h-265.239835/]]></link>
                <description><![CDATA[<article>
<blockquote class="messageText SelectQuoteContainer ugc baseHtml">
<div style="text-align: center"><b>Girls Aloud - Biology (2160p AM WEB-DL AAC2.0 H.265)</b><br>
<b><br>
<img src="https://i.postimg.cc/8zB5QwzT/Biology-m4v-thumbs.jpg" class="bbCodeImage LbImage" alt="[​IMG]" data-url="https://i.postimg.cc/8zB5QwzT/Biology-m4v-thumbs.jpg" style=""> <br>
Video:</b> HVC1 3840x2068 25fps 20574kbps [V: Core Media Video (hevc main 10 L5.0, yuv420p10le, 3840x2068, 20574 kb/s)]<br>
<b>Audio: </b>AAC 48000Hz stereo 263kbps [A: Core Media Audio (aac lc, 48000 Hz, stereo, 263 kb/s)]<br>
<br>
<div class="bbCodeBlock bbCodeVfcHH HiddenContent">
<div class="attribution type">Hidden Content:</div>
<blockquote>You must reply before you can see the hidden data contained here.</blockquote>
</div></div>
<div class="messageTextEndMarker">&nbsp;</div>
</blockquote>
</article>]]></description>
                <author><![CDATA[Djodjara]]></author>
                </item>

                </channel></rss>